<svg width="312" height="290" viewBox="0 0 312 290" fill="none" xmlns="http://www.w3.org/2000/svg">
<path fill-rule="evenodd" clip-rule="evenodd" d="M72.3739 159.378C72.7529 161.208 72.3289 163.119 71.6354 164.854C71.8094 165.019 71.9829 165.184 72.1569 165.35C75.6263 162.649 79.1497 159.892 81.6724 156.29C82.7349 154.774 81.4796 152.559 79.7776 151.827C78.0757 151.097 76.1405 151.322 74.2897 151.243C72.0631 151.15 69.8569 150.589 67.8552 149.609C64.9482 148.187 62.2813 145.84 59.0457 145.792C58.6888 145.787 58.3061 145.819 58.0252 146.041C57.3412 146.579 57.7589 147.677 58.2731 148.38C60.8242 151.87 64.6479 154.408 68.8548 155.403C70.6736 155.833 71.995 157.548 72.3739 159.378Z" fill="#697975"/>
<path fill-rule="evenodd" clip-rule="evenodd" d="M128.189 212.686L82.1938 222.952C72.7931 225.05 63.4715 219.13 61.3733 209.729C60.3622 205.198 61.1993 200.451 63.6995 196.539L89.0765 156.828C96.889 144.603 99.505 129.768 96.3449 115.608L86.0799 69.613C83.9817 60.2123 89.9015 50.8907 99.3022 48.7926C103.834 47.7815 108.581 48.6185 112.493 51.1182L152.203 76.4957C164.428 84.3083 179.264 86.9243 193.423 83.7642L239.418 73.4986C248.819 71.4009 258.141 77.3208 260.239 86.7215C261.25 91.2528 260.413 96.0001 257.913 99.9118L232.536 139.622C224.723 151.847 222.107 166.683 225.267 180.842L235.533 226.838C237.631 236.238 231.711 245.56 222.31 247.658C217.779 248.669 213.031 247.832 209.119 245.332L169.409 219.955C157.184 212.142 142.349 209.526 128.189 212.686Z" fill="#B8B8B8"/>
<path fill-rule="evenodd" clip-rule="evenodd" d="M223.48 194.811C121.134 194.85 47.3815 194.84 2.22309 194.78C-4.1825 180.816 152.88 186.696 212.437 186.696C271.994 186.696 244.441 194.802 223.48 194.811Z" fill="#E7EAEE"/>
<path fill-rule="evenodd" clip-rule="evenodd" d="M144.287 25.3371C145.795 26.3356 146.986 27.808 147.646 29.4926C147.851 30.0162 148.434 30.2689 148.827 30.6714C149.221 31.0735 149.286 31.9331 148.734 32.0458C148.493 32.0945 148.257 31.9619 148.046 31.8356C144.663 29.816 140.55 28.1854 136.86 29.565C137.467 29.8747 137.773 30.6699 137.531 31.3067C138.284 31.334 138.986 31.6726 139.663 32.0049C140.259 32.2974 140.855 32.5893 141.451 32.8818C141.388 33.0579 141.325 33.234 141.263 33.4096C138.569 32.0379 135.278 31.8953 132.476 33.0291C133.407 33.1706 134.356 33.1963 135.294 33.1056C136.662 33.7949 138.029 34.4841 139.397 35.1734C139.701 35.3265 140.021 35.4952 140.193 35.7898C140.364 36.0844 140.299 36.5409 139.98 36.6625C137.51 34.4831 134.015 33.5197 130.776 34.1251C130.398 34.1953 130.139 33.6686 130.3 33.319C130.46 32.9693 130.845 32.7901 131.202 32.6496C132.998 31.9425 134.891 31.4855 136.811 31.2952C135.85 30.4046 134.738 29.6787 133.537 29.1582C133.338 28.4815 134.315 27.8331 134.862 28.2776C139.02 27.4626 143.475 28.2713 147.081 30.4959C147.111 29.7888 146.586 29.1939 146.095 28.6833C144.561 27.0883 143.027 25.4933 141.492 23.8983C144.179 24.2385 146.813 24.9954 149.271 26.1323C149.827 26.3896 150.376 26.6674 150.879 27.016C152.776 28.329 153.904 30.6772 153.744 32.9783C152.595 30.5504 150.777 28.4433 148.544 26.9515C147.267 26.0992 145.819 25.4351 144.287 25.3371Z" fill="#E7EAEE"/>
<path fill-rule="evenodd" clip-rule="evenodd" d="M46.6173 140.091C42.7265 143.583 43.0667 149.763 44.4709 154.799C46.2777 161.278 49.333 167.406 53.4193 172.748L4.76572 173.237L18.4335 157.645C3.87592 162.556 -4.18244 181.215 2.2231 195.179C83.8339 195.287 165.444 195.12 247.054 194.677C232.169 204.738 217.739 216.942 210.822 233.523C203.905 250.104 206.769 271.903 221.473 282.226C226.951 286.07 233.527 288.041 240.102 289.285C246.882 290.57 255.091 290.624 259.276 285.137C261.72 281.933 260.551 276.905 259.396 271.933C258.59 268.464 257.791 265.023 258.228 262.246C259.709 252.83 266.048 248.055 273.281 242.606C274.801 241.461 276.36 240.287 277.921 239.034C291.256 228.332 306.541 214.802 310.432 198.153C313.987 182.946 310.075 167.861 299.909 156.005C296.249 151.737 291.749 147.852 287.227 143.947C281.151 138.7 275.032 133.417 270.854 127.121C268.303 123.277 267.409 119.166 266.47 114.853C266.133 113.305 265.791 111.731 265.364 110.133C259.883 89.6232 240.34 79.0772 220.216 68.2183C217.667 66.8429 215.109 65.4628 212.57 64.0565C200.923 57.6083 189.169 49.355 185.43 36.4356C187.492 36.5158 188.257 33.4165 187.068 31.7287C186.185 30.4739 184.789 29.7678 183.396 29.0634C182.916 28.8207 182.436 28.578 181.978 28.3133C177.726 25.855 175.288 20.8399 172.792 15.7042C169.042 7.98812 165.158 0 154.791 0C154.4 2.61763 154.804 4.95012 155.183 7.13532C155.769 10.5119 156.294 13.5374 153.727 16.7232C146.38 15.9086 138.785 17.5152 132.397 21.2351C128.704 14.224 119.338 11.229 111.745 13.4986C112.706 14.7088 113.277 15.3158 113.749 15.819C114.748 16.882 115.311 17.4816 118.207 22.3259C122.476 29.4628 119.772 55.6999 119.096 59.8486C118.421 63.9967 121.617 66.9446 124.541 64.8962C123.117 71.0445 128.247 76.9124 134.556 77.0891C136.711 77.4733 138.05 78.5158 139.315 79.5007C140.102 80.1134 140.861 80.7042 141.77 81.1004C121.738 95.4287 99.5617 106.754 76.2101 114.582L75.7991 114.72C71.4298 116.183 66.8628 117.711 63.7687 121.107C60.5782 124.608 59.8286 130.825 63.5418 133.768C61.2748 135.823 58.1723 136.382 55.0688 136.941C51.9778 137.498 48.8858 138.055 46.6173 140.091ZM253.556 167.82C249.941 171.237 242.863 171.415 237.889 171.395L173.387 171.131C171.524 168.655 172.677 164.849 175.084 162.898C177.491 160.947 180.732 160.422 183.821 160.177C193.791 159.388 203.931 160.82 213.292 164.34C215.921 164.808 217.917 161.491 217.282 158.898C216.646 156.305 214.438 154.45 212.385 152.744C205.758 147.239 199.261 141.04 196.15 133.006C192.925 124.675 193.86 114.847 198.6 107.274C190.643 113.884 188.971 126.036 192.544 135.744C196.118 145.452 203.966 153.004 212.469 158.896C207.825 159.848 203.004 158.788 198.231 157.738C192.448 156.466 186.737 155.209 181.499 157.568L180.419 128.109L177.62 153.931C177.412 155.851 176.807 158.227 174.91 158.584C169.759 159.553 166.704 166.299 169.375 170.809C167.073 172.362 163.562 171.668 162.025 169.355C160.488 167.042 161.209 163.535 163.532 162.015C169.169 158.328 169.615 150.385 169.461 143.652L168.403 97.1611C168.377 96.0388 168.632 94.5633 169.743 94.4087C186.018 92.1475 200.488 79.9195 205.431 64.2499C219.854 70.7106 234.279 78.1604 245.917 88.4197C272.551 111.898 265.245 131.42 263.334 136.527C263 137.422 262.83 137.874 263.038 137.828C264.366 137.531 264.996 136.036 265.364 134.726C266.223 131.665 266.782 128.52 267.031 125.351C271.427 133.517 278.425 139.721 285.438 145.938C291.847 151.62 298.268 157.313 302.724 164.523C309.596 175.642 311.035 189.952 306.513 202.216C301.172 216.704 288.896 226.839 276.788 236.834C273.879 239.236 270.979 241.63 268.188 244.075C262.345 249.191 256.467 255.53 256.278 263.294C256.228 265.374 256.6 267.425 256.972 269.479C257.234 270.931 257.498 272.383 257.613 273.85C257.89 277.391 257.016 281.419 254.018 283.323C252.753 284.125 251.25 284.456 249.767 284.67C234.399 286.889 215.574 276.49 211.19 261.594C206.888 246.977 214.439 228.944 224.36 217.38C230.524 210.196 238.499 205.062 246.501 199.911C251.379 196.771 256.267 193.623 260.76 190.002C264.971 186.608 269.13 182.95 271.795 178.244C274.459 173.537 275.416 167.554 273.023 162.704C271.061 158.729 267.195 155.97 263.404 153.263C258.637 149.86 253.989 146.542 253.396 141C253.469 143.49 254.52 146.279 255.562 149.044C256.47 151.455 257.372 153.847 257.611 156.005C258.126 160.64 256.945 164.618 253.556 167.82ZM261.399 158.317C267.874 158.388 271.676 166.584 269.855 172.798C268.034 179.012 262.684 183.434 257.611 187.458C255.066 189.477 252.256 191.595 249.008 191.619L4.06199 193.452L2.98878 174.45L50.2298 174.405C56.3404 174.399 63.2687 174.749 67.2491 179.385C68.6963 181.071 71.2736 179.235 73.0394 177.887C77.2227 174.691 82.903 174.536 88.1666 174.514L260.999 173.813C262.852 173.806 265.346 173.183 265.285 171.331L253.663 170.893C257.837 168.021 260.717 163.338 261.399 158.317ZM81.6513 172.344C84.2438 166.082 86.2109 159.561 87.5135 152.911C87.8793 151.043 88.1938 149.13 87.9454 147.243C87.199 141.58 81.8217 137.853 76.881 134.985C78.9897 134.943 80.7885 133.453 82.1419 131.835C82.5188 131.385 82.8784 130.916 83.2379 130.448C84.1709 129.234 85.1034 128.02 86.3325 127.121C88.8537 125.279 89.2573 125.246 94.4659 124.819H94.4669L94.4842 124.817C95.0157 124.774 95.5965 124.726 96.2349 124.672C100.815 124.283 111.892 120.11 119.981 117.063C124.107 115.508 127.455 114.246 128.766 113.93C146.705 109.601 159.139 115.269 161.94 118.323C163.468 119.991 163.843 122.381 164.15 124.622C165.531 134.702 166.913 144.94 165.458 155.01C165.186 156.89 164.684 158.962 163.09 159.995C161.492 161.03 159.987 162.209 158.599 163.513C156.374 165.604 154.374 168.999 156.102 171.516L81.6513 172.344ZM183.761 33.8206C182.965 33.0564 181.53 33.1177 180.802 33.9469C180.075 34.7761 180.2 36.2071 181.062 36.8969C183.974 39.2278 186.208 42.3952 187.426 45.9202C185.844 45.2676 184.101 45.0071 182.397 45.1685C184.156 49.1815 185.351 53.4408 185.935 57.7834L180.441 54.5064C179.949 54.2128 179.421 53.9099 178.849 53.9266C178.276 53.9434 177.679 54.4293 177.771 54.9949C179.828 55.6186 180.889 58.0455 180.682 60.1851C180.474 62.3247 179.313 64.2368 178.182 66.0645L172.736 74.8624C173.932 76.2583 176.198 74.9778 177.377 73.5673C180.773 69.5035 182.804 64.3185 183.071 59.0288C183.726 59.1142 184.293 59.5063 184.854 59.8947C185.501 60.3428 186.141 60.7863 186.902 60.748C187.948 60.6956 188.739 59.6787 188.902 58.6435C189.065 57.6088 188.753 56.5642 188.445 55.5631L185.919 47.359C187.978 47.5817 188.907 49.6616 189.809 51.6812C190.07 52.2651 190.329 52.8443 190.612 53.3721C192.214 56.3582 195.314 58.1786 198.263 59.8486C195.062 65.7741 191.625 71.6509 187.021 76.566C182.416 81.481 176.514 85.4142 169.885 86.6019C168.772 86.8016 167.611 86.9212 166.521 86.6182C165.156 86.2392 164.09 85.2659 163.028 84.2952C162.67 83.9676 162.311 83.6405 161.942 83.3365C158.242 80.2901 153.366 79.5521 148.491 78.8141C143.61 78.075 138.729 77.3359 135.029 74.2806C134.994 74.2518 134.958 74.2225 134.923 74.1931C134.518 73.855 134.095 73.5038 133.577 73.4252C133.015 73.3398 132.34 73.7733 132.428 74.3352C132.498 74.7754 131.964 75.6786 131.067 75.1948C127.607 73.3303 126.602 69.2702 125.689 65.5823C125.375 64.3138 125.072 63.0894 124.684 62.0133C124.466 61.4084 123.522 61.7156 123.118 62.2162L123.094 62.2466C123.07 62.277 123.045 62.3079 123.02 62.3388C122.637 62.8195 122.189 63.3824 121.617 63.2294C120.935 60.7202 121.173 57.884 121.403 55.1401C121.496 54.0231 121.589 52.9213 121.617 51.863C121.62 51.7671 121.649 51.4778 121.696 51.0244C122.224 45.8594 124.934 19.3785 114.738 14.6323C117.162 14.1548 121.074 14.5967 124.541 16.7232C128.048 18.8743 130.568 22.8186 130.402 23.0272C132.824 22.6723 135.095 21.7367 137.37 20.8C139.29 20.0086 141.213 19.2166 143.233 18.7721C145.684 18.2322 148.216 18.2186 150.726 18.2076L154.04 18.1924C157.611 14.3131 157.472 10.0638 157.312 5.13567V5.13462C157.282 4.20215 157.251 3.24505 157.244 2.26173C163.432 3.0747 169.991 14.7398 172.059 21.7388C172.922 24.662 175.474 26.4583 178.053 28.275C180.298 29.8559 182.565 31.4525 183.761 33.8206ZM78.2836 116.344C78.9923 116.163 79.6967 115.985 80.3918 115.801C91.0227 112.988 100.944 108.038 110.781 103.121C122.499 97.2627 134.42 91.2633 143.821 82.1382C144.548 81.4333 145.7 81.482 146.705 81.6115C150.418 82.09 154.072 83.0382 157.549 84.4257C159.372 85.1527 161.421 86.4017 161.434 88.3636C161.439 89.0545 161.174 89.7149 160.912 90.3544L159.162 94.6462C158.415 96.477 157.655 98.376 157.719 100.353C157.784 102.329 158.906 104.415 160.808 104.958C162.709 105.501 165.057 103.732 164.566 101.817C163.725 98.5364 163.149 95.1887 162.847 91.8163C166.551 99.1529 165.273 107.907 163.907 116.011C159.005 113.428 153.872 111.28 148.59 109.601C146.775 109.025 144.742 108.517 143.028 109.346C138.832 111.374 130.934 111.914 130.157 111.369C129.379 110.824 128.315 111.087 127.419 111.402C125.976 111.909 123.226 112.982 119.94 114.263L119.939 114.263C111.877 117.406 100.592 121.805 97.485 122.199C96.6668 122.303 95.8444 122.379 95.022 122.456C93.2435 122.622 91.4656 122.788 89.7374 123.225C87.2094 123.865 84.7176 125.19 83.3794 127.428C82.3799 126.878 81.7561 125.906 81.1287 124.928C80.8258 124.456 80.5223 123.984 80.1753 123.556C79.1091 122.243 76.871 121.433 75.8489 122.78C74.9521 119.713 70.4124 118.53 68.1323 120.768C67.7801 121.114 67.486 121.512 67.192 121.911C66.8864 122.325 66.5808 122.739 66.2102 123.095C65.4822 123.791 64.317 124.22 63.4726 123.671C66.9241 119.227 72.7349 117.752 78.2836 116.344ZM67.0326 172.036C64.4281 172.973 61.5547 172.06 58.9711 171.067C56.5286 170.129 53.9796 169.01 52.4957 166.854C50.7104 164.261 50.9028 160.839 51.1659 157.701L52.2677 144.558C50.6334 145.933 49.4331 147.815 48.8769 149.877C47.5561 146.964 49.5206 143.072 52.6493 142.405C51.3274 141.31 49.1521 142.028 48.2191 143.469C47.2861 144.909 47.3071 146.764 47.5802 148.459C47.6536 148.915 47.7432 149.372 47.8328 149.828C48.0755 151.063 48.3177 152.3 48.2432 153.55C46.2792 150.482 45.905 146.453 47.2699 143.075C47.8879 141.545 48.9839 140.048 50.5857 139.654C52.188 139.26 54.1709 140.569 53.9057 142.198C53.2971 145.93 55.0373 149.761 57.7063 152.44C60.3748 155.118 63.872 156.806 67.4016 158.161C68.701 158.66 70.3164 159.803 69.6827 161.042C69.0213 162.336 68.5647 163.801 68.7922 165.236C69.0192 166.672 70.0712 168.044 71.5031 168.291C73.2685 168.596 74.8394 167.229 76.1084 165.964L83.6064 158.495C82.6074 161.27 81.4348 163.984 80.0993 166.615C79.1841 168.417 78.1374 170.241 76.4831 171.402C74.8284 172.563 72.4068 172.865 70.8417 171.586C69.97 170.874 68.7802 171.347 67.6731 171.789L67.6721 171.789C67.4546 171.876 67.2402 171.961 67.0326 172.036ZM66.2904 145.896C65.5907 145.432 64.8909 144.968 64.1655 144.559C61.9184 143.291 58.9344 142.609 56.8719 144.159C56.2104 142.031 57.5176 139.745 59.2227 138.309C62.2387 135.77 66.6605 135.026 70.3421 136.437C73.8325 137.775 77.3753 139.231 80.1475 141.738C82.9203 144.246 84.8156 148.037 84.1033 151.707C83.3239 151.896 82.6729 151.271 82.0649 150.685C81.949 150.574 81.8342 150.463 81.721 150.361C79.9965 148.801 77.6316 148.759 75.221 148.715C73.7554 148.689 72.2731 148.663 70.9082 148.295C69.2215 147.84 67.7575 146.869 66.2904 145.896ZM71.6358 164.854C72.3292 163.119 72.7533 161.209 72.3743 159.379C71.9953 157.549 70.6734 155.834 68.8551 155.404C64.6482 154.409 60.824 151.871 58.2735 148.38C57.7593 147.677 57.341 146.58 58.0255 146.041C58.3065 145.82 58.6886 145.787 59.0461 145.793C61.3497 145.827 63.3651 147.027 65.3842 148.228C66.2008 148.714 67.0179 149.2 67.855 149.61C69.8573 150.59 72.0629 151.15 74.2901 151.244C74.7361 151.263 75.1874 151.264 75.6392 151.266C77.0602 151.27 78.4865 151.273 79.778 151.828C81.4799 152.559 82.7353 154.774 81.6728 156.292C79.15 159.892 75.6267 162.65 72.1568 165.35L71.6358 164.854ZM199.331 61.9184C199.718 61.2192 200.293 60.4157 201.087 60.5058C202.116 60.6233 202.323 62.0269 202.181 63.0522C201.18 70.3275 196.676 76.7961 190.947 81.3903C185.218 85.985 178.324 88.8936 171.352 91.1993C170.872 91.3576 170.403 91.6564 169.941 91.9499C169.059 92.5107 168.209 93.0522 167.382 92.5564C166.428 91.9845 166.671 90.4162 167.539 89.7207C168.326 89.0901 169.374 88.9549 170.384 88.8244C170.488 88.8113 170.59 88.7982 170.693 88.784C177.434 87.8767 183.455 83.8769 188.061 78.8707C192.667 73.8645 196.037 67.8702 199.331 61.9184ZM74.3262 123.2C74.9332 123.923 75.6026 124.721 76.5246 124.701C77.2998 124.684 77.7825 125.313 78.2831 125.966C78.6379 126.429 79.0017 126.903 79.4845 127.166C80.6392 127.795 80.7382 129.548 79.9803 130.623C79.2224 131.697 77.9073 132.22 76.6351 132.553C74.0406 133.23 71.3013 133.347 68.6591 132.894C66.9357 132.598 65.1488 131.992 64.0628 130.622C62.9762 129.251 62.9453 126.949 64.3835 125.955C64.8647 125.622 65.4439 125.467 66.02 125.313C66.7066 125.129 67.3885 124.947 67.8938 124.466C68.2691 124.109 68.4934 123.633 68.7178 123.158C68.9531 122.66 69.1874 122.163 69.5942 121.804C70.2525 121.223 71.2505 121.143 72.0792 121.434C72.9079 121.724 73.5888 122.332 74.158 123L74.2104 123.063L74.2408 123.099L74.3262 123.2ZM69.4684 176.698C69.2016 176.804 68.9012 176.821 68.6245 176.746C68.3572 176.674 68.1129 176.517 67.9368 176.303C67.2192 175.434 68.2193 173.862 69.3111 174.144C70.4024 174.425 70.5172 176.285 69.4684 176.698ZM158.226 171.243C157.96 171.561 157.313 171.528 157.244 171.119C156.961 169.439 156.826 167.372 158.216 166.386L158.452 170.053C158.478 170.466 158.491 170.925 158.226 171.243ZM144.287 22.7164C145.795 23.7149 146.986 25.1872 147.646 26.8719C147.78 27.2152 148.077 27.4421 148.376 27.6707C148.533 27.7912 148.691 27.9118 148.827 28.0507C149.221 28.4527 149.286 29.3123 148.734 29.425C148.493 29.4738 148.257 29.3412 148.046 29.2148C144.663 27.1953 140.55 25.5646 136.86 26.9442C137.466 27.254 137.773 28.0491 137.531 28.686C138.284 28.7132 138.986 29.0518 139.663 29.3841L141.451 30.261L141.263 30.7889C138.569 29.4172 135.278 29.2746 132.475 30.4083C133.407 30.5499 134.356 30.5755 135.294 30.4849L139.396 32.5527C139.7 32.7057 140.021 32.8745 140.193 33.1691C140.363 33.4636 140.298 33.9202 139.98 34.0418C137.509 31.8623 134.014 30.8989 130.776 31.5043C130.398 31.5746 130.139 31.0478 130.3 30.6982C130.46 30.3486 130.845 30.1693 131.202 30.0288C132.998 29.3218 134.891 28.8647 136.811 28.6744C135.851 27.7839 134.738 27.0585 133.536 26.5374C133.338 25.8608 134.315 25.2124 134.862 25.6569C139.02 24.8418 143.475 25.6506 147.081 27.8751C147.111 27.168 146.586 26.5731 146.095 26.0626L141.492 21.2775C144.179 21.6177 146.813 22.3746 149.27 23.5115C149.827 23.7689 150.375 24.0467 150.879 24.3952C152.775 25.7082 153.904 28.0565 153.744 30.3575C152.595 27.9296 150.777 25.8225 148.543 24.3308C147.267 23.4785 145.819 22.8144 144.287 22.7164ZM153.753 45.06C153.492 43.03 153.48 40.8642 154.446 39.059C154.735 38.5191 155.136 38.0007 155.704 37.7743C156.575 37.4283 157.577 37.8702 158.263 38.5076C159.966 40.0884 160.329 42.65 160.182 44.9694C160.119 45.9768 159.971 47.0078 159.477 47.8884C158.983 48.769 158.079 49.4776 157.069 49.4923C156.056 49.5075 155.131 48.8219 154.603 47.956C154.076 47.0901 153.882 46.0654 153.753 45.06ZM129.51 52.6131C127.595 49.682 127.725 45.5596 129.819 42.7538C130.07 42.4188 130.354 42.0938 130.726 41.902C131.45 41.5288 132.376 41.7537 133.004 42.2736C133.631 42.7936 134.009 43.5552 134.282 44.3231C135.091 46.5979 135.125 49.1406 134.376 51.4353C133.921 52.8275 132.795 54.3334 131.353 54.0818C130.556 53.9429 129.953 53.2898 129.51 52.6131ZM147.907 67.6679C148.137 67.604 148.366 67.5405 148.535 67.3786C148.894 67.0352 148.768 66.3717 148.361 66.087C147.953 65.803 147.381 65.8522 146.946 66.0928C146.507 66.3371 146.157 66.8193 146.231 67.3167C146.306 67.8141 146.942 68.1858 147.351 67.8933C147.514 67.7774 147.711 67.7224 147.907 67.6679ZM153.078 59.5865C156.257 58.882 158.035 58.9711 160.763 59.6667L161.338 59.8166C164.059 60.5273 165.76 60.5305 169.215 59.4104C169.628 59.2767 170.071 59.5026 170.205 59.9156C170.339 60.3292 164.035 62.1202 161.153 61.3922L160.622 61.2543C157.968 60.5572 156.425 60.4555 153.418 61.1217C152.994 61.2155 152.574 60.9482 152.48 60.5242C152.387 60.1001 152.654 59.6808 153.078 59.5865ZM178.052 51.993C177.86 51.6036 177.389 51.4432 176.999 51.635C171.404 54.389 168.304 54.748 163.201 54.0965L161.914 53.9371C161.767 53.9204 161.638 53.9067 161.503 53.8936L161.043 53.8527C158.005 53.6137 155.596 54.1295 152.506 55.975C152.133 56.1978 152.012 56.6806 152.234 57.0532C152.457 57.4259 152.94 57.548 153.312 57.3253C156.188 55.6076 158.311 55.182 161.148 55.4399C161.336 55.4567 161.493 55.4724 161.675 55.4923L163.562 55.7245C168.631 56.3131 178.244 52.3825 178.052 51.993ZM139.234 59.3742C139.667 59.3433 140.043 59.6693 140.074 60.1028C140.105 60.5357 139.779 60.9115 139.346 60.9425C137.553 61.0704 136.319 61.68 134.466 63.1733L133.795 63.7268L133.576 63.9108C133.458 64.0098 133.357 64.0937 133.319 64.1251C131.686 65.4869 130.598 66.2291 129.154 66.8214C128.753 66.986 125.978 67.5505 128.129 66.3921C130.279 65.2337 133.081 62.2743 133.081 62.2743L133.492 61.9384C135.571 60.2647 137.059 59.5288 139.234 59.3742ZM140.414 63.1355C140.243 62.7361 139.782 62.5506 139.382 62.7209C137.409 63.5632 136.298 64.6404 134.43 67.084L133.853 67.8341C133.476 68.3173 133.159 68.8053 132.852 69.2786C132.174 70.3222 131.542 71.2961 130.401 71.9979C128.742 73.018 131.112 72.4833 131.482 72.2558C132.955 71.3501 133.91 70.3505 135.401 68.4038L135.833 67.8388C137.451 65.7411 138.396 64.8516 140 64.1671C140.399 63.9967 140.585 63.5349 140.414 63.1355Z" fill="#00160A"/>
<path fill-rule="evenodd" clip-rule="evenodd" d="M143.168 60.638C142.525 60.0583 141.591 59.8806 140.963 59.2846C140.367 58.7196 140.139 57.7986 140.403 57.0208C140.666 56.2435 141.407 55.6506 142.223 55.5642C144.565 55.3157 146.907 55.0678 149.248 54.8193C149.804 54.7606 150.418 54.7161 150.868 55.0473C151.556 55.5532 151.447 56.6581 150.951 57.3521C150.454 58.0455 149.688 58.4926 149.089 59.1006C148.318 59.8848 147.835 60.9467 147.753 62.0432C147.691 62.8578 147.78 63.8285 147.135 64.3291C146.324 64.957 145.126 64.2148 144.63 63.3175C144.134 62.4201 143.93 61.3241 143.168 60.638Z" fill="#FFB61D"/>
<path fill-rule="evenodd" clip-rule="evenodd" d="M249.767 284.67C251.249 284.456 252.753 284.126 254.017 283.323C257.016 281.419 257.889 277.391 257.612 273.85C257.335 270.309 256.192 266.845 256.278 263.295C256.467 255.53 262.345 249.191 268.188 244.075C282.596 231.459 299.888 220.186 306.513 202.216C309.165 195.022 275.86 217.023 257.612 242.925C244.754 261.177 243.414 285.588 249.767 284.67Z" fill="#E7EAEE"/>
<path fill-rule="evenodd" clip-rule="evenodd" d="M262.019 105.747C259.761 100.311 253.468 95.0765 245.917 88.4197C234.278 78.1604 219.853 70.7106 205.43 64.2498C219.573 74.5526 236.814 83.1525 249.083 96.0834C255.063 102.385 259.108 115.087 262.489 119.168C265.077 122.293 268.457 121.252 262.019 105.747Z" fill="#E7EAEE"/>
<path fill-rule="evenodd" clip-rule="evenodd" d="M162.359 103.615C162.873 102.495 163.233 97.3271 160.531 97.3271C158.846 99.2403 159.019 102.912 162.359 103.615Z" fill="#FFB61D"/>
<path fill-rule="evenodd" clip-rule="evenodd" d="M83.3793 127.428C84.7175 125.19 87.2093 123.864 89.7373 123.225C92.2653 122.585 94.8982 122.526 97.4849 122.199C98.4944 122.071 102.639 121.417 108.019 119.529C115.798 116.8 126.476 112.442 136.65 111.334C149.93 109.886 161.772 114.886 163.907 116.011C165.273 107.907 160.654 108.88 158.174 108.624C103.343 102.96 81.8975 126.612 83.3793 127.428Z" fill="#E7EAEE"/>
</svg>
