<svg width="24" height="22" viewBox="0 0 24 22" fill="none" xmlns="http://www.w3.org/2000/svg">
<path fill-rule="evenodd" clip-rule="evenodd" d="M10.033 12.8613C5.92894 12.8613 2.46094 14.9229 2.46094 17.3631C2.46094 20.1461 6.78194 20.4678 10.033 20.4678C11.906 20.4678 17.605 20.4678 17.605 17.3447C17.605 14.9137 14.137 12.8613 10.033 12.8613Z" fill="black"/>
<path fill-rule="evenodd" clip-rule="evenodd" d="M10.0011 10.7585H10.0331C12.8091 10.7585 15.0661 8.68864 15.0661 6.14489C15.0661 3.60114 12.8091 1.53223 10.0331 1.53223C7.25803 1.53223 5.00003 3.60114 5.00003 6.14306C4.99003 8.67856 7.23203 10.7493 10.0011 10.7585Z" fill="black"/>
<path fill-rule="evenodd" clip-rule="evenodd" d="M21.2892 8.62075H19.9922V7.47034C19.9922 7.09084 19.6562 6.78284 19.2422 6.78284C18.8282 6.78284 18.4922 7.09084 18.4922 7.47034V8.62075H17.1992C16.7852 8.62075 16.4492 8.92875 16.4492 9.30827C16.4492 9.68777 16.7852 9.99577 17.1992 9.99577H18.4922V11.1462C18.4922 11.5257 18.8282 11.8337 19.2422 11.8337C19.6562 11.8337 19.9922 11.5257 19.9922 11.1462V9.99577H21.2892C21.7032 9.99577 22.0392 9.68777 22.0392 9.30827C22.0392 8.92875 21.7032 8.62075 21.2892 8.62075Z" fill="black"/>
</svg>
